<?xml version="1.0" standalone="no"?>
<!DOCTYPE svg PUBLIC "-//W3C//DTD SVG 20010904//EN"
 "http://www.w3.org/TR/2001/REC-SVG-20010904/DTD/svg10.dtd">
<svg version="1.0" xmlns="http://www.w3.org/2000/svg"
 width="729.000000pt" height="342.000000pt" viewBox="0 0 729.000000 342.000000"
 preserveAspectRatio="xMidYMid meet">
<metadata>
Created by potrace 1.16, written by Peter Selinger 2001-2019
</metadata>
<g transform="translate(0.000000,342.000000) scale(0.100000,-0.100000)"
fill="#000000" stroke="none">
<path d="M6672 2430 c-2 -267 -7 -476 -12 -465 -13 34 -23 -47 -17 -148 5 -91
5 -91 -14 -68 -18 22 -19 50 -21 535 l-3 511 -2 -503 -3 -504 -31 26 c-28 24
-59 34 -59 20 0 -3 15 -24 34 -45 34 -40 94 -145 76 -134 -5 3 -18 1 -27 -4
-13 -7 25 -10 134 -11 l152 0 4 -27 c4 -26 4 -26 6 5 1 29 -2 32 -29 32 -16 0
-30 2 -30 5 0 6 40 87 46 94 1 2 17 -7 33 -19 30 -20 31 -21 31 -2 0 29 -43
87 -68 90 -18 3 -26 -5 -41 -40 -11 -24 -20 -36 -21 -28 -1 8 -7 -9 -13 -39
-7 -30 -18 -56 -24 -59 -28 -9 -6 155 32 238 15 35 15 35 11 -45 -4 -64 -3
-71 4 -35 5 25 9 70 9 100 l0 55 -16 -30 c-9 -16 -24 -54 -33 -84 l-17 -55 -7
95 c-4 53 -11 101 -16 109 -8 14 -40 -108 -40 -156 0 -15 -3 -24 -7 -20 -5 4
-10 251 -13 549 l-6 542 -2 -485z"/>
<path d="M2433 2855 c-13 -9 -32 -13 -46 -10 -18 5 -29 0 -44 -18 -14 -18 -26
-24 -44 -20 -27 5 -54 -17 -47 -38 2 -7 -6 -22 -18 -34 -24 -25 -23 -56 3 -87
8 -9 17 -36 20 -60 4 -29 18 -57 42 -88 57 -70 75 -103 72 -130 -3 -31 -48
-80 -73 -80 -38 0 -99 -42 -186 -127 -49 -49 -100 -104 -113 -123 l-24 -35 -5
260 -5 260 -430 0 -430 0 0 -275 0 -275 2 273 3 272 425 0 425 0 0 -265 0
-265 -30 -48 c-16 -27 -32 -64 -35 -83 -5 -32 -4 -31 8 7 35 104 246 347 347
399 54 28 75 21 109 -40 33 -57 39 -63 59 -43 22 22 25 -22 12 -153 -13 -127
-13 -129 11 -189 13 -33 27 -60 32 -60 4 0 19 25 33 55 l25 54 -22 111 c-12
61 -24 108 -26 106 -3 -2 5 -52 17 -110 l21 -105 -23 -52 -22 -53 -23 50 c-25
54 -28 97 -13 190 6 34 11 81 12 105 l1 44 14 -30 14 -30 -4 27 c-2 16 1 36 8
45 11 15 15 15 29 4 22 -18 25 -13 31 45 6 55 0 50 -10 -9 l-6 -38 -29 21 -29
21 24 35 c13 19 26 40 29 47 3 8 9 7 19 -5 8 -10 17 -15 20 -11 4 3 -2 12 -13
20 -29 21 -27 77 5 115 14 16 25 37 25 46 -1 9 -7 2 -15 -15 -27 -62 -112 -91
-174 -59 -24 13 -47 50 -65 108 -2 9 -15 18 -28 20 -30 4 -39 48 -10 48 11 0
23 -6 25 -12 3 -7 3 4 0 24 -4 30 -1 43 19 66 20 23 28 28 42 20 10 -6 29 -8
44 -5 14 3 36 -2 49 -10 19 -13 26 -13 39 -2 14 11 19 10 35 -10 11 -13 19
-19 19 -13 0 5 9 12 20 15 26 7 36 34 23 67 -6 17 -7 34 -1 43 10 20 -22 57
-50 57 -9 0 -22 10 -27 23 -12 27 -61 34 -92 12z m82 -22 c6 -14 19 -23 31
-23 11 0 29 -8 38 -19 15 -17 15 -20 2 -34 -14 -13 -14 -16 -1 -27 29 -24 11
-70 -26 -70 -9 0 -22 7 -29 15 -12 14 -15 14 -30 0 -15 -14 -19 -13 -43 5 -16
12 -28 16 -32 10 -9 -15 -41 -12 -56 6 -11 14 -14 13 -26 -10 -19 -36 -49 -43
-73 -14 -11 13 -19 18 -20 13 0 -6 6 -17 13 -24 10 -11 9 -13 -3 -9 -39 12
-43 88 -4 88 10 0 13 7 8 25 -7 30 18 45 47 27 15 -9 19 -8 24 8 9 29 40 43
66 29 17 -9 23 -7 36 11 20 28 64 24 78 -7z m5 -478 c0 -40 -40 -109 -65 -113
-13 -2 -33 10 -53 31 -29 30 -32 38 -27 73 l7 39 69 0 69 0 0 -30z"/>
<path d="M5452 2703 l-2 -73 -321 0 -321 0 7 -37 c3 -21 13 -43 21 -49 12 -9
14 -104 17 -605 l2 -594 3 596 2 596 83 6 c106 9 357 9 680 0 l257 -6 2 -111
c1 -77 3 -91 5 -44 4 64 5 67 31 71 l27 4 -27 2 c-25 1 -28 5 -28 39 0 21 4
42 9 47 5 6 11 26 13 45 l3 35 -192 3 c-189 2 -192 3 -196 25 l-4 22 -2 -22
c-1 -18 -7 -23 -31 -23 l-29 0 -4 73 -3 72 -2 -72z m448 -117 l0 -33 -535 1
c-349 1 -535 4 -535 11 0 6 -3 20 -6 33 l-6 22 541 0 541 0 0 -34z"/>
<path d="M3316 2544 c-49 -45 -73 -56 -62 -29 15 38 16 48 2 25 -38 -61 -4
-67 58 -10 53 49 72 53 26 5 -44 -46 -31 -45 20 1 50 46 52 33 3 -20 -38 -40
-21 -33 30 13 15 14 27 20 27 14 0 -7 -17 -25 -37 -42 -21 -17 -33 -31 -28
-31 5 0 22 12 37 27 44 42 33 10 -12 -34 -72 -73 -196 -100 -217 -48 -5 15 51
108 90 147 9 10 13 18 8 18 -11 0 -87 -100 -103 -135 -8 -18 -14 -22 -24 -14
-9 8 -15 5 -23 -9 -22 -42 -91 -206 -87 -209 2 -2 23 42 47 97 23 56 46 103
51 106 4 3 20 -3 36 -13 15 -11 39 -24 54 -31 25 -10 27 -14 18 -38 -6 -15 -9
-29 -6 -31 6 -6 26 58 21 67 -3 5 18 16 46 25 63 21 139 90 139 126 -1 30 -19
54 -45 61 -15 4 -35 -8 -69 -38z"/>
<path d="M3699 2455 c-29 -16 -51 -59 -47 -93 2 -19 -4 -26 -36 -37 -51 -18
-94 -61 -102 -102 -5 -26 -3 -33 10 -33 18 0 22 -35 6 -45 -12 -8 -13 -52 -1
-59 18 -11 22 -86 6 -117 -10 -19 -16 -54 -15 -97 1 -53 -6 -87 -34 -164 -35
-97 -62 -158 -71 -158 -3 0 -14 18 -25 40 l-20 40 -215 0 c-118 0 -215 -2
-215 -5 0 -2 29 -68 65 -145 36 -77 65 -143 65 -145 0 -3 -84 -5 -186 -5
l-186 0 6 148 c4 81 8 174 11 207 3 50 3 53 -4 21 -5 -22 -16 -45 -26 -52 -43
-32 -223 -45 -324 -23 -57 12 -81 35 -91 87 -7 31 -8 33 -9 9 0 -15 6 -41 14
-56 11 -23 12 -35 2 -60 -12 -32 -27 -42 -27 -18 0 8 -41 64 -90 126 -82 103
-89 114 -76 132 16 23 146 159 152 159 2 0 5 -21 6 -47 1 -39 2 -42 5 -14 3
19 2 45 -2 59 -6 24 -10 21 -88 -63 -45 -48 -86 -94 -90 -101 -5 -9 23 -51 83
-126 49 -62 90 -115 90 -118 -1 -3 -16 -22 -34 -44 l-33 -39 -108 104 c-59 57
-119 124 -134 149 l-26 45 -65 -6 -65 -6 66 -1 c60 -2 67 -4 77 -27 10 -21 9
-25 -6 -26 -14 -1 -13 -2 3 -7 12 -4 74 -59 138 -122 65 -63 124 -114 132
-112 22 4 18 -14 -11 -64 -25 -42 -25 -46 -10 -69 9 -13 16 -29 16 -35 0 -16
-527 -14 -533 3 -4 9 -6 9 -6 0 -1 -10 -61 -13 -266 -13 l-264 0 -21 66 c-11
36 -20 74 -21 83 0 10 -3 11 -6 4 -4 -11 15 -90 33 -138 5 -13 -13 -15 -140
-15 l-146 0 -2 248 c-1 136 -3 226 -5 200 l-4 -48 -55 0 -54 0 0 65 0 64 62 4
63 3 -67 2 -68 2 0 -270 c0 -192 -3 -270 -11 -270 -8 0 -9 73 -4 270 l7 270
-66 0 c-36 0 -66 -3 -66 -7 0 -5 27 -6 60 -5 l60 4 0 -67 0 -67 -60 4 -60 3 0
-127 c0 -71 -1 -131 -2 -135 -2 -5 23 -9 54 -11 l58 -3 0 -64 0 -65 -65 0 -65
0 0 270 0 270 -65 0 -65 0 0 -269 0 -270 -27 -3 c-21 -2 -29 -9 -31 -27 -2
-13 0 -27 5 -32 5 -5 79 -9 165 -10 137 0 157 -3 161 -17 4 -15 5 -15 6 1 1
16 19 17 236 17 129 0 235 -4 235 -8 0 -18 75 -94 111 -112 58 -30 61 -24 4 9
-28 16 -62 46 -78 67 l-27 39 226 3 c125 1 229 0 232 -3 13 -13 -60 -92 -109
-118 -48 -26 -61 -28 -123 -24 -37 2 -63 2 -58 -2 6 -4 12 -30 13 -59 l3 -52
170 2 c126 2 143 3 64 5 -91 3 -107 6 -111 21 -4 15 -5 15 -6 -1 -1 -15 -9
-18 -53 -15 l-53 3 -3 42 -3 43 55 0 c44 0 55 -4 59 -17 4 -14 5 -13 6 4 1 14
11 24 29 31 39 14 94 63 117 106 l20 36 262 0 c145 0 263 -4 263 -8 0 -5 -70
-217 -155 -471 -85 -255 -155 -465 -155 -467 0 -2 7 -4 15 -4 48 0 -16 -50
-79 -62 -41 -7 -41 -7 7 -4 38 3 56 10 81 35 22 22 42 31 64 31 18 0 32 -5 32
-11 0 -25 -24 -105 -34 -112 -7 -6 -6 -7 4 -4 9 2 21 28 29 65 11 49 18 62 33
62 15 0 32 28 73 115 75 158 211 468 294 666 55 132 72 165 89 167 20 3 21 -2
25 -80 l3 -83 2 83 2 82 100 0 99 0 4 -77 3 -78 2 78 2 77 384 0 c376 0 384 0
389 -20 4 -16 -1 -21 -21 -25 -136 -26 -158 -42 -168 -122 -5 -46 -2 -66 24
-136 17 -45 32 -91 34 -102 2 -11 19 34 38 99 39 138 64 177 102 159 21 -10
29 -27 51 -114 l26 -102 -30 -59 c-16 -32 -71 -129 -123 -217 -105 -177 -120
-205 -130 -241 -4 -14 8 4 26 40 63 122 120 212 128 203 16 -16 110 -280 110
-309 0 -16 -12 -49 -25 -73 -20 -34 -23 -46 -13 -53 54 -34 148 53 148 136 0
14 -10 33 -25 44 -24 19 -36 67 -58 227 -3 17 -3 -1 -1 -39 5 -84 33 -213 43
-197 15 23 34 -17 28 -55 -11 -69 -77 -128 -123 -110 -14 5 -13 9 5 34 11 16
23 40 26 55 4 15 11 24 17 21 11 -7 38 14 38 30 0 6 -5 3 -11 -7 -5 -9 -14
-17 -18 -17 -9 0 -131 317 -131 338 0 7 21 49 48 94 l47 82 6 -39 c6 -34 6
-32 4 11 -2 33 2 59 11 72 13 19 10 40 -31 201 -25 99 -45 183 -45 186 0 4 10
5 22 3 20 -3 27 -21 67 -178 l44 -175 59 3 c47 3 64 0 80 -15 16 -14 40 -19
124 -21 l104 -4 0 -119 c0 -99 3 -119 15 -119 13 0 15 -27 15 -180 l0 -180
-96 -45 c-54 -25 -100 -45 -103 -45 -4 0 -28 88 -55 195 -27 108 -50 194 -53
192 -2 -3 17 -86 42 -185 25 -100 45 -186 45 -192 0 -5 -8 -10 -19 -10 -15 0
-23 16 -41 90 -12 50 -24 89 -26 87 -3 -2 6 -45 18 -96 l22 -91 258 0 c142 0
258 2 258 4 0 3 -43 25 -95 50 l-95 45 0 180 c0 114 4 181 10 181 6 0 10 47
10 120 l0 119 63 4 c34 2 -32 4 -146 5 -160 2 -215 5 -236 17 -24 12 -41 33
-41 51 0 2 111 4 248 4 136 0 241 4 234 8 -10 7 -10 15 -2 36 5 15 10 35 9 44
0 9 -7 -4 -15 -31 -15 -47 -15 -47 -59 -47 l-44 0 20 35 c23 38 28 91 16 143
l-9 32 51 0 c34 0 51 -4 51 -12 0 -10 2 -10 8 -1 4 6 29 14 56 18 l49 8 -6
-63 c-4 -34 -16 -81 -26 -105 -16 -37 -25 -44 -53 -48 l-33 -5 35 2 c31 1 38
6 58 47 13 26 25 74 29 113 l6 68 -69 -6 c-259 -21 -317 -18 -353 15 -12 11
-21 24 -21 29 0 6 46 10 108 11 59 1 96 4 82 8 -31 8 -71 82 -49 90 8 2 27 17
43 33 28 29 29 31 23 111 -5 76 -25 182 -33 174 -2 -2 3 -35 11 -73 8 -38 15
-95 15 -127 0 -48 -4 -62 -25 -82 -30 -31 -69 -32 -207 -4 -143 29 -235 39
-214 24 9 -7 15 -25 15 -41 -1 -17 -3 -22 -6 -11 -3 12 -14 17 -38 17 -35 0
-41 14 -16 44 11 13 11 16 0 16 -18 -1 -68 -39 -51 -40 7 0 10 -4 7 -10 -8
-14 -65 -13 -65 1 0 6 10 9 23 7 17 -3 23 0 24 14 2 18 -17 20 -29 3 -5 -6 -8
-5 -8 2 0 24 62 83 89 84 24 2 24 2 3 6 -33 6 -71 -22 -91 -68 l-18 -39 -11
25 c-10 22 -6 32 30 85 23 33 46 60 52 60 15 0 66 -52 66 -66 0 -19 52 -25
175 -22 l110 4 -125 2 -126 2 -51 53 c-28 28 -53 61 -56 72 -3 15 -5 12 -6 -8
-1 -27 -68 -137 -83 -137 -4 0 -17 18 -28 40 l-20 40 23 47 c14 27 34 80 47
118 12 39 27 79 33 90 6 11 10 48 8 83 -3 59 12 122 29 122 4 0 15 -9 24 -19
10 -11 28 -22 42 -25 18 -5 24 -13 24 -34 0 -24 -8 -32 -53 -54 -53 -26 -53
-26 -48 -64 l6 -39 3 38 c3 32 9 40 42 57 22 11 41 20 44 20 2 0 7 -14 11 -31
4 -18 16 -35 31 -41 20 -10 28 -8 49 12 14 13 25 31 24 39 0 11 -3 10 -9 -4
-12 -31 -37 -47 -58 -40 -23 7 -32 33 -32 91 0 35 4 43 23 48 40 11 48 7 66
-35 10 -23 20 -36 22 -31 3 7 23 7 62 0 l57 -10 2 -51 2 -52 3 48 c4 52 13 57
55 29 32 -21 58 -53 86 -107 17 -33 21 -36 22 -17 0 29 19 36 66 23 21 -6 40
-9 42 -6 3 2 -15 9 -40 15 -42 11 -44 13 -40 45 3 28 -1 37 -27 56 -21 16 -31
31 -31 50 0 46 -34 78 -93 85 -37 5 -59 15 -79 35 -26 25 -37 67 -22 82 3 3 7
29 10 59 2 42 -2 62 -21 96 -22 40 -23 46 -10 65 8 12 15 38 15 58 0 29 -7 43
-31 63 -34 29 -61 32 -100 11z m104 -26 c23 -28 22 -81 -2 -103 -18 -16 -21
-16 -48 -1 -26 15 -23 15 25 -1 14 -5 13 -3 -3 11 -15 12 -30 14 -59 9 -63
-10 -77 37 -26 88 26 25 36 29 63 24 18 -3 40 -16 50 -27z m-66 -110 c84 -31
136 -155 72 -172 -19 -5 -35 17 -52 74 -5 15 -10 15 -59 -2 -64 -22 -178 -26
-178 -5 0 30 47 81 90 98 53 20 88 22 127 7z m-5 -166 c10 -9 18 -23 19 -32 0
-10 2 -12 6 -3 2 6 11 12 18 12 7 0 16 -6 18 -12 3 -8 6 -6 6 5 1 20 27 23 34
3 6 -15 -11 -36 -29 -36 -6 0 -14 -18 -18 -39 -17 -108 -176 -134 -223 -37
-19 41 -18 43 22 48 38 4 47 16 39 51 -5 24 -3 28 12 25 10 -2 20 -12 22 -23
9 -46 57 -61 83 -27 13 15 12 16 -3 4 -28 -22 -63 -11 -66 21 -4 29 12 57 31
57 6 0 19 -7 29 -17z m88 -89 c0 -9 15 -31 33 -48 25 -25 44 -34 84 -40 58 -7
83 -31 83 -78 0 -19 9 -34 30 -50 33 -24 40 -61 17 -92 -11 -15 -15 -13 -44
28 -17 24 -43 52 -57 61 -24 16 -95 37 -167 49 -29 5 -40 13 -49 37 -11 25
-10 32 2 42 25 20 48 60 48 84 0 13 5 23 10 23 6 0 10 -7 10 -16z m-3312 -466
l-3 -123 -52 -3 -53 -3 0 125 0 126 55 0 56 0 -3 -122z m142 -3 l0 -125 -50 0
-50 0 0 125 0 125 50 0 50 0 0 -125z m150 0 l0 -125 -55 0 -55 0 0 125 0 125
55 0 55 0 0 -125z m1897 -67 c-4 -62 -7 -132 -7 -155 l0 -43 -104 0 -105 0 -3
38 -3 37 -17 -37 -17 -38 -127 0 c-97 0 -125 3 -122 13 3 6 26 74 53 150 47
136 49 139 74 132 14 -3 80 -9 146 -11 89 -4 131 -2 165 9 77 26 74 30 67 -95z
m737 -45 l68 -138 74 3 c47 2 74 0 74 -7 0 -7 -94 -10 -283 -11 l-283 0 -31
67 c-17 38 -47 103 -66 146 l-36 77 207 0 208 0 68 -137z m536 -141 c38 -6 47
-12 62 -42 9 -19 17 -38 18 -42 0 -5 -36 -8 -81 -8 -77 0 -80 -1 -77 -21 6
-40 50 -62 137 -67 l79 -4 11 -43 c13 -50 2 -97 -31 -132 -21 -22 -26 -23
-200 -23 -171 0 -178 -1 -178 -20 0 -17 -7 -20 -50 -20 -47 0 -50 2 -50 25 0
14 -7 42 -15 62 -13 30 -55 181 -55 196 0 2 55 9 123 16 160 16 178 20 85 18
-57 -2 -78 1 -78 10 0 10 22 13 80 13 l80 0 0 35 0 35 -75 0 c-43 0 -75 4 -75
10 0 11 218 13 290 2z m-150 -47 l0 -25 -1734 0 c-1199 0 -1737 3 -1741 10 -4
6 -4 17 -1 25 5 13 233 15 1741 15 l1735 0 0 -25z m-1410 -44 c0 -21 -199
-483 -365 -849 l-38 -82 -79 0 c-60 0 -78 3 -75 13 3 6 74 218 159 470 l153
457 122 0 c69 0 123 -4 123 -9z m1021 -117 c5 -3 -1 -18 -14 -33 -13 -16 -34
-66 -47 -112 -13 -46 -26 -88 -30 -92 -10 -11 -60 131 -60 169 0 19 10 41 26
59 23 25 30 27 71 21 24 -3 49 -8 54 -12z m639 -379 l0 -115 -45 0 -45 0 0
115 0 115 45 0 45 0 0 -115z m71 -535 l83 -40 -195 1 -194 1 80 38 c44 21 94
39 112 39 18 1 67 -16 114 -39z"/>
<path d="M6072 2173 l-2 -123 -95 0 -94 0 -4 108 c-1 59 -4 -159 -5 -485 l-2
-592 -122 -4 -123 -3 128 -2 127 -2 0 245 0 245 253 3 252 2 -252 3 -253 2 0
30 0 30 183 3 182 2 -182 3 -183 2 0 200 0 200 95 0 94 0 4 -67 3 -68 2 67 2
68 238 3 237 2 -237 3 -237 2 -4 123 -3 122 -2 -122z"/>
<path d="M5392 1843 l3 -278 53 -3 52 -3 0 280 0 281 -55 0 -55 0 2 -277z m98
-3 l0 -270 -45 0 -45 0 0 270 0 270 45 0 45 0 0 -270z"/>
<path d="M5230 1774 l0 -215 53 3 52 3 3 213 2 212 -55 0 -55 0 0 -216z m100
1 l0 -205 -45 0 -45 0 0 205 0 205 45 0 45 0 0 -205z"/>
<path d="M5560 1745 l0 -186 53 3 52 3 0 180 0 180 -52 3 -53 3 0 -186z m98 3
l-3 -173 -42 -3 -43 -3 0 175 0 176 45 0 45 0 -2 -172z"/>
<path d="M5052 1683 l3 -118 53 -3 52 -3 0 120 0 121 -55 0 -56 0 3 -117z m98
-4 l0 -110 -42 3 -43 3 -3 108 -3 107 46 0 45 0 0 -111z"/>
<path d="M6856 1486 l-18 -97 -116 3 -117 3 -11 55 c-7 30 -12 46 -13 35 0
-11 3 -37 8 -57 l9 -38 -182 -3 c-99 -1 -18 -3 182 -5 l362 -2 0 -35 0 -35
-153 0 c-85 0 -283 3 -440 7 l-287 6 0 23 c0 22 4 23 78 27 l77 3 -82 2 -83 2
0 -34 c0 -32 3 -35 33 -38 l32 -3 5 -220 c3 -121 7 -196 8 -167 l2 52 358 2
357 3 -355 5 -355 5 -3 164 -3 164 233 -6 c128 -4 297 -7 375 -7 l143 0 -1
-266 c0 -147 3 -269 6 -272 3 -3 5 117 5 266 l0 271 28 3 c24 3 27 7 30 46 l3
42 -60 0 c-34 0 -61 4 -61 9 0 5 7 43 16 85 8 42 14 81 12 87 -2 7 -12 -32
-22 -85z"/>
<path d="M1888 1240 c-20 -12 -95 -125 -131 -196 -23 -46 -29 -51 -54 -47 -21
3 -19 0 11 -11 45 -17 106 -73 106 -97 0 -23 -24 -41 -68 -50 -30 -5 -32 -7
-10 -8 69 -3 107 44 74 94 -9 13 -16 31 -16 38 0 8 34 66 75 128 45 67 75 122
73 134 -3 22 -34 30 -60 15z m49 -16 c3 -10 -19 -52 -60 -112 -36 -53 -71
-109 -78 -124 -14 -26 -15 -26 -36 -10 l-23 17 47 83 c75 133 133 190 150 146z"/>
<path d="M829 1208 c-3 -28 5 -45 60 -127 84 -125 92 -142 85 -193 -9 -62 10
-79 84 -76 l57 2 -55 3 c-63 5 -80 16 -80 50 0 35 17 61 53 83 18 11 27 20 20
20 -6 0 -21 20 -33 44 -27 58 -93 159 -119 185 -23 23 -70 28 -72 9z m84 -40
c48 -58 122 -197 111 -208 -5 -5 -14 -10 -20 -12 -15 -4 -164 217 -164 243 0
33 37 21 73 -23z"/>
<path d="M2458 925 c-4 -93 -17 -267 -28 -385 -11 -118 -20 -218 -20 -222 0
-4 9 -9 20 -13 17 -5 19 -13 15 -53 -6 -53 0 -47 10 11 5 33 9 37 36 37 22 0
32 -6 39 -25 5 -14 14 -25 20 -25 6 0 4 10 -5 23 -17 27 -11 37 21 37 14 0 24
8 27 23 17 68 78 563 76 617 -1 19 -8 -21 -15 -90 -17 -154 -63 -499 -70 -521
-3 -12 -22 -18 -68 -23 -88 -9 -99 -3 -92 48 16 119 47 554 44 636 -3 82 -4
71 -10 -75z"/>
<path d="M3235 523 c-26 -93 -53 -177 -60 -189 -7 -11 -36 -45 -64 -76 -28
-31 -51 -61 -51 -67 0 -6 18 -11 43 -11 34 0 56 9 110 45 71 48 82 71 52 111
-13 17 -14 17 -15 2 0 -22 -42 -50 -63 -42 -14 5 -15 9 -3 32 17 33 108 353
103 358 -2 3 -25 -71 -52 -163z"/>
</g>
</svg>
