<?xml version="1.0" standalone="no"?>
<!DOCTYPE svg PUBLIC "-//W3C//DTD SVG 20010904//EN"
 "http://www.w3.org/TR/2001/REC-SVG-20010904/DTD/svg10.dtd">
<svg version="1.0" xmlns="http://www.w3.org/2000/svg"
 width="1920.000000pt" height="1080.000000pt" viewBox="0 0 1920.000000 1080.000000"
 preserveAspectRatio="xMidYMid meet">
<metadata>
Created by potrace 1.16, written by Peter Selinger 2001-2019
</metadata>
<g transform="translate(0.000000,1080.000000) scale(0.100000,-0.100000)"
fill="#000000" stroke="none">
<path d="M5413 8290 c6 -165 5 -181 -11 -187 -25 -9 -32 -23 -32 -63 0 -28 -7
-41 -35 -63 -34 -27 -35 -30 -35 -95 0 -98 -5 -108 -74 -148 -33 -21 -78 -53
-98 -72 -39 -37 -80 -126 -92 -198 l-7 -41 77 -6 c42 -4 97 -7 120 -7 40 0 45
-3 58 -33 7 -19 26 -44 42 -56 54 -43 152 -11 168 55 6 24 8 24 132 24 99 0
126 3 130 14 9 22 -12 140 -32 181 -9 20 -49 68 -88 106 l-71 68 0 79 c0 84
-16 125 -55 137 -12 4 -20 15 -20 29 0 39 -20 84 -41 89 -18 5 -19 15 -19 186
0 130 -3 181 -12 181 -8 0 -10 -47 -5 -180z m58 -310 c19 -6 46 -21 59 -35 20
-22 22 -31 17 -87 -7 -82 6 -112 77 -173 69 -58 104 -123 113 -205 l6 -60
-159 0 c-87 0 -244 3 -347 7 l-188 6 6 41 c17 105 70 180 164 235 37 22 74 47
81 56 8 10 14 47 15 95 3 104 15 120 105 128 8 1 31 -3 51 -8z"/>
<path d="M6110 8133 c0 -357 -8 -563 -21 -563 -20 0 -39 -35 -39 -72 0 -35 -6
-47 -40 -78 l-40 -37 0 -81 c0 -45 -5 -92 -11 -105 -6 -14 -40 -42 -74 -62
-84 -49 -130 -96 -165 -170 -32 -68 -56 -173 -43 -186 4 -4 64 -10 133 -11
l125 -3 22 -47 c27 -58 56 -78 110 -78 51 0 108 44 118 90 l7 30 140 0 141 0
-5 83 c-6 113 -34 172 -113 245 -93 86 -99 98 -91 191 7 78 7 79 -24 115 -18
20 -38 36 -46 36 -9 0 -14 11 -14 28 0 47 -20 101 -39 107 -17 5 -18 26 -13
455 3 323 2 450 -6 450 -8 0 -11 -99 -12 -337z m87 -723 c48 -29 56 -51 48
-134 -9 -91 -1 -108 97 -202 63 -60 77 -80 93 -129 10 -32 18 -83 19 -114 l1
-56 -220 2 c-121 1 -294 5 -384 9 l-163 6 6 39 c9 59 43 142 76 187 16 23 68
67 117 99 99 65 101 69 102 186 1 69 4 81 26 102 20 21 34 25 87 25 45 0 72
-6 95 -20z m-27 -660 c0 -24 -26 -63 -51 -76 -60 -31 -126 -6 -147 56 l-11 30
105 0 c59 0 104 -4 104 -10z"/>
<path d="M15355 7979 c-225 -5 -416 -11 -422 -14 -7 -2 -11 -10 -8 -17 2 -7 9
-148 15 -313 6 -165 13 -313 15 -329 l5 -29 -656 5 -655 6 6 -77 c8 -86 18
-111 44 -111 17 0 18 -23 25 -383 4 -211 3 -817 -1 -1348 -4 -530 -8 -1036 -8
-1124 l0 -160 451 -3 451 -2 7 -413 c3 -226 11 -522 17 -656 6 -134 8 -249 5
-256 -4 -10 -44 -14 -173 -15 -287 -2 -401 -21 -491 -83 -45 -30 -102 -108
-102 -138 0 -9 -11 -24 -25 -33 -89 -59 -83 -203 10 -242 63 -26 103 -19 147
26 l40 40 -4 70 -4 70 141 0 c77 0 212 3 299 7 154 6 159 6 151 -13 -4 -10
-10 -40 -12 -65 -10 -90 51 -154 140 -146 68 6 108 46 115 115 2 28 0 64 -6
81 -11 31 -11 31 26 32 20 0 156 4 302 8 146 4 266 6 267 6 2 -1 -6 -19 -17
-40 -11 -22 -20 -53 -20 -70 0 -72 66 -135 142 -135 48 0 103 46 119 101 22
71 -17 144 -146 274 -113 114 -298 160 -589 148 l-128 -6 6 119 c3 65 13 328
21 584 9 256 18 502 21 548 l6 82 236 0 c131 0 342 3 470 7 l232 6 0 497 0
498 323 6 c177 3 494 9 704 12 l382 6 5 -33 c2 -19 16 -99 30 -178 13 -80 23
-149 20 -153 -3 -4 -161 -9 -352 -9 -191 -1 -428 -4 -527 -8 l-180 -6 -3 -60
c-1 -33 2 -66 6 -73 5 -6 31 -13 60 -15 28 -2 54 -6 57 -9 9 -9 23 -695 30
-1438 4 -366 8 -671 10 -677 3 -8 21 -13 45 -13 22 0 40 -3 41 -7 12 -185 18
-227 36 -252 24 -32 58 -39 71 -14 6 10 13 75 17 145 l7 128 192 0 c105 0 343
3 529 7 327 6 337 6 338 -13 0 -10 4 -67 8 -126 10 -120 25 -158 66 -158 36 0
43 25 50 172 8 140 6 138 86 138 l36 0 6 647 c4 357 10 831 14 1056 l6 407 58
0 c58 0 58 0 64 33 4 17 5 55 3 82 l-3 50 -125 8 c-69 5 -126 10 -126 10 -1 1
17 101 40 222 24 121 46 239 49 263 l7 42 -70 0 c-38 0 -70 2 -70 4 0 2 16 39
37 82 35 77 59 114 73 114 3 0 31 -18 60 -40 29 -22 58 -40 63 -40 12 0 -2 57
-26 105 -31 62 -65 102 -97 115 -46 19 -73 -5 -106 -94 -16 -41 -30 -73 -32
-71 -2 2 3 59 12 127 8 67 18 169 22 226 5 85 4 101 -7 97 -23 -9 -102 -212
-115 -296 -13 -77 -21 -46 -27 94 -6 166 -26 309 -41 304 -14 -5 -44 -129 -66
-272 -9 -66 -20 -113 -23 -105 -28 79 -32 198 -32 925 0 413 3 899 8 1081 l7
331 -42 7 c-72 11 -1638 15 -2073 5z m1915 -18 l175 -6 -5 -490 c-3 -269 -5
-734 -4 -1032 1 -301 -3 -540 -7 -537 -5 3 -9 14 -9 24 0 43 -19 26 -30 -27
-12 -58 -8 -350 6 -438 l7 -40 -40 53 -40 52 -7 528 c-4 290 -4 755 1 1032 4
278 8 559 8 625 l0 120 -135 6 c-338 16 -2086 5 -2116 -14 -5 -3 -6 -61 -3
-139 4 -73 10 -193 13 -265 l7 -133 -59 0 -58 0 -13 293 c-7 160 -15 311 -18
333 l-5 42 143 7 c418 20 1699 24 2189 6z m-317 -141 c192 -4 350 -10 353 -12
2 -2 0 -299 -5 -659 -5 -360 -6 -865 -2 -1124 3 -258 5 -472 3 -474 -1 -3 -24
16 -50 42 -51 49 -104 77 -133 70 -16 -4 -8 -18 47 -82 36 -42 84 -106 105
-143 33 -55 40 -74 37 -110 l-3 -43 -60 -1 c-33 -1 -231 -7 -440 -13 -209 -6
-514 -11 -677 -11 l-298 0 0 405 0 405 194 0 193 0 6 -162 c4 -90 10 -254 13
-365 4 -123 11 -203 17 -203 6 0 7 41 4 113 -4 61 -10 226 -13 365 l-7 252
487 0 c322 0 485 3 481 10 -4 6 -177 10 -485 10 l-479 0 -5 53 c-3 28 -8 217
-11 420 l-6 367 490 0 c316 0 492 4 496 10 4 7 -161 10 -488 10 l-494 0 -7 92
c-3 50 -6 218 -7 372 0 155 -5 304 -9 331 -5 30 -8 -117 -6 -371 l3 -421 -90
-7 c-49 -3 -130 -6 -179 -6 l-88 0 0 80 c0 73 2 80 20 80 23 0 29 20 33 110
l2 65 -390 3 c-214 1 -391 4 -393 6 -2 2 -8 96 -12 208 -5 111 -12 227 -15
256 -3 37 -1 54 8 57 17 6 821 22 1202 23 171 1 467 -3 658 -8z m-1074 -566
c2 -2 0 -32 -3 -67 l-7 -64 -1092 4 -1092 4 -7 37 c-4 20 -7 51 -7 68 l-1 31
1103 -5 c606 -2 1104 -6 1106 -8z m-261 -153 l203 -6 0 -300 c-1 -165 -3 -545
-6 -845 -3 -300 -8 -836 -11 -1191 l-6 -647 -30 -6 c-17 -3 -483 -6 -1036 -6
l-1005 0 6 303 c4 166 7 841 7 1499 l0 1197 23 4 c34 7 1625 5 1855 -2z m586
-448 c3 -153 8 -342 11 -420 l4 -143 -194 0 -195 0 0 113 c0 63 3 249 7 415
l6 301 76 3 c42 2 122 4 177 6 l102 3 6 -278z m1383 -780 c11 -89 8 -485 -3
-543 -8 -39 -13 -45 -34 -45 -22 0 -26 5 -32 50 -10 77 -9 251 2 345 13 113
42 260 51 260 4 0 11 -30 16 -67z m-149 -98 c22 -95 47 -275 58 -412 5 -68 4
-83 -7 -83 -38 0 -82 175 -95 371 -7 102 3 237 16 223 4 -5 17 -49 28 -99z
m305 -2 c-7 -108 -34 -318 -51 -403 -16 -82 -18 -85 -46 -88 l-29 -4 7 99 c4
55 17 146 30 204 23 102 74 249 86 249 4 0 5 -26 3 -57z m-460 -238 c64 -74
140 -185 157 -229 9 -25 8 -26 -25 -26 -32 0 -37 4 -64 58 -40 79 -142 230
-180 266 -17 17 -31 34 -31 39 0 22 88 -45 143 -108z m613 42 c35 -39 81 -124
72 -132 -3 -3 -26 8 -51 26 -35 24 -49 29 -63 21 -10 -5 -41 -54 -69 -108 -30
-58 -58 -100 -68 -102 -9 -2 -17 2 -17 9 0 23 101 284 117 302 24 25 48 21 79
-16z m-60 -320 l41 -2 -18 -105 c-10 -58 -30 -171 -45 -251 l-28 -146 -230 -6
c-195 -5 -233 -4 -242 9 -18 23 -84 404 -84 484 l0 25 282 -3 c156 -1 301 -3
324 -5z m-622 -13 c3 -9 6 -37 6 -64 l0 -48 -307 -8 c-170 -4 -483 -8 -698 -8
l-390 -1 3 60 c2 33 4 60 5 61 1 1 252 4 557 8 305 4 556 9 559 12 2 2 62 4
132 4 106 0 128 -3 133 -16z m734 -519 l93 -8 -3 -61 -3 -61 -855 -3 c-470 -1
-874 1 -897 4 l-43 6 0 54 0 54 93 1 c85 2 636 9 1262 17 143 2 302 1 353 -3z
m-38 -479 l0 -323 -61 -7 c-34 -3 -376 -6 -761 -6 -550 0 -699 3 -703 13 -2 6
-6 155 -10 330 l-6 317 770 0 771 0 0 -324z m-3054 -343 c-3 -98 -13 -356 -21
-573 -8 -217 -17 -437 -21 -487 l-6 -93 -69 0 c-63 0 -69 2 -73 23 -4 22 -20
522 -33 1040 l-6 267 118 0 118 0 -7 -177z m3045 -348 c-2 -187 -6 -342 -8
-345 -3 -3 -341 -5 -751 -5 l-747 0 -7 335 c-4 184 -6 340 -4 345 2 7 265 10
762 10 l759 -1 -4 -339z m-10 -721 c-2 -226 -7 -351 -14 -356 -6 -3 -143 -7
-305 -8 -162 0 -298 -2 -301 -4 -3 -2 -199 -6 -436 -7 l-430 -4 -6 360 c-3
198 -5 362 -4 365 2 3 340 5 752 4 l748 0 -4 -350z m-2600 -119 c101 -21 190
-67 255 -131 59 -59 63 -68 37 -79 -19 -8 -416 -18 -1123 -30 -234 -4 -427 -7
-430 -7 -84 -2 -139 29 -125 71 9 31 69 95 111 122 74 45 119 51 549 64 470
14 623 12 726 -10z m370 -278 c10 -23 19 -56 19 -73 0 -43 -38 -96 -82 -112
-33 -13 -41 -12 -74 4 -51 26 -79 66 -78 113 2 66 34 98 119 118 52 12 72 1
96 -50z m-1747 38 c13 -9 43 -19 67 -23 43 -7 44 -9 53 -54 12 -60 -14 -115
-67 -141 -31 -16 -42 -17 -72 -7 -38 12 -82 58 -91 95 -9 36 14 92 49 120 38
29 32 29 61 10z m942 -52 c29 -69 -5 -151 -72 -173 -96 -32 -189 91 -135 178
l21 32 85 0 86 0 15 -37z m2912 -104 c-6 -146 -18 -178 -53 -139 -21 24 -33
92 -34 198 l-1 72 46 0 47 0 -5 -131z m-1188 17 c0 -119 -7 -163 -26 -170 -28
-11 -47 42 -55 152 -4 58 -5 110 -3 114 3 4 23 8 45 8 l39 0 0 -104z"/>
<path d="M14835 6228 c-3 -7 -4 -263 -3 -568 l3 -555 107 -3 c105 -3 108 -2
113 20 3 13 4 268 3 568 l-3 545 -108 3 c-80 2 -109 -1 -112 -10z m205 -558
l0 -550 -95 0 -95 0 0 550 0 550 95 0 95 0 0 -550z"/>
<path d="M14500 5535 l0 -435 110 0 110 0 0 435 0 435 -110 0 -110 0 0 -435z
m208 3 l-3 -413 -95 0 -95 0 -1 405 c0 223 2 408 4 413 2 4 46 7 98 7 l94 0
-2 -412z"/>
<path d="M15170 5475 l0 -375 110 0 110 0 0 375 0 375 -110 0 -110 0 0 -375z
m200 0 l0 -356 -92 3 -93 3 -3 340 c-1 187 0 346 3 352 3 9 31 13 95 13 l90 0
0 -355z"/>
<path d="M14145 5578 c-3 -8 -4 -117 -3 -243 l3 -230 110 0 110 0 3 206 c2
113 -1 221 -5 240 l-9 34 -102 3 c-77 2 -104 -1 -107 -10z m205 -233 l0 -225
-95 0 -95 0 0 225 0 225 95 0 95 0 0 -225z"/>
<path d="M17093 4322 c-152 -3 -154 -5 -102 -77 31 -43 67 -67 120 -80 33 -8
105 11 141 37 26 18 85 105 77 112 -8 7 -111 11 -236 8z m207 -26 c0 -23 -61
-87 -97 -102 -46 -20 -103 -17 -139 5 -38 23 -88 86 -80 100 3 5 75 10 161 10
132 2 155 0 155 -13z"/>
<path d="M17022 3601 c-34 -3 -63 -10 -63 -14 -1 -5 13 -30 30 -57 34 -53 95
-90 147 -90 50 0 130 44 158 87 49 76 47 78 -89 79 -66 0 -148 -2 -183 -5z
m278 -27 c0 -9 -19 -36 -43 -59 -73 -74 -159 -74 -233 0 -24 25 -44 49 -44 54
0 12 51 17 203 19 102 2 117 0 117 -14z"/>
<path d="M16998 2913 c-21 -2 -38 -8 -38 -12 0 -21 62 -101 94 -121 95 -58
244 4 271 113 l7 27 -148 -2 c-82 -1 -166 -3 -186 -5z m312 -22 c0 -11 -39
-61 -65 -83 -35 -29 -101 -42 -145 -29 -40 12 -125 95 -114 112 7 12 324 12
324 0z"/>
<path d="M1913 7751 c-17 -11 -36 -28 -41 -37 -9 -16 -14 -16 -37 -6 -56 26
-113 8 -141 -44 -18 -34 -37 -43 -49 -24 -11 17 -61 11 -90 -12 -24 -19 -27
-26 -22 -65 4 -36 2 -43 -12 -43 -24 0 -59 -35 -67 -66 -8 -33 10 -93 38 -130
33 -41 57 -125 51 -177 -5 -41 -3 -47 26 -68 17 -13 42 -41 55 -64 13 -22 34
-49 46 -60 12 -11 31 -37 42 -59 11 -21 31 -49 45 -62 25 -23 25 -24 12 -93
-11 -65 -15 -72 -56 -101 -24 -17 -41 -35 -38 -40 3 -4 -19 -11 -47 -15 -29
-4 -76 -17 -103 -29 -67 -30 -206 -147 -332 -279 -56 -59 -104 -107 -106 -107
-3 0 -5 165 -5 368 0 202 -4 433 -7 515 l-8 148 -283 -1 c-166 -1 -286 -5
-289 -11 -4 -5 103 -9 278 -9 l285 0 7 -355 c4 -195 6 -430 3 -523 l-4 -167
-59 -72 c-32 -40 -60 -71 -61 -70 -1 1 2 146 7 322 6 177 6 416 2 535 l-8 215
-227 3 c-150 1 -228 -1 -228 -8 0 -6 77 -10 219 -10 l219 0 6 -31 c8 -43 6
-741 -3 -919 l-8 -145 -37 -59 c-68 -104 -88 -158 -85 -228 l3 -62 -160 3
c-87 1 -156 -1 -152 -5 4 -4 78 -10 165 -13 l157 -6 27 -47 28 -48 -192 -2
-192 -3 200 -9 c199 -9 199 -9 219 -35 41 -53 162 -176 316 -322 133 -126 160
-147 168 -133 5 9 14 14 21 10 20 -13 12 -51 -25 -112 -57 -93 -67 -119 -48
-135 8 -7 12 -19 9 -27 -3 -10 4 -24 20 -36 23 -19 25 -25 16 -49 l-11 -27
-436 0 c-240 1 -439 -2 -442 -5 -3 -3 949 -5 2116 -5 l2122 0 0 -50 0 -50
-2122 -2 c-1168 -2 -1933 -4 -1700 -5 232 -2 422 -6 422 -8 0 -15 -459 -1389
-579 -1734 -39 -112 -68 -208 -65 -212 3 -5 22 -9 42 -9 l36 0 -39 -41 c-53
-54 -80 -67 -159 -75 -37 -4 -69 -11 -73 -16 -3 -6 6 -8 23 -5 16 3 55 9 86
12 60 7 106 34 158 95 23 26 33 29 99 34 l74 5 -6 -49 c-9 -74 -37 -183 -52
-198 -10 -11 -57 -14 -199 -15 -102 -1 -186 -5 -186 -9 0 -9 345 -10 378 -2
24 7 41 52 71 194 l16 75 37 0 c20 0 41 5 46 10 13 14 236 505 457 1005 84
189 173 399 279 660 l112 275 39 3 c21 2 41 -1 44 -6 7 -11 -13 -573 -29 -852
-10 -168 -44 -583 -75 -928 -8 -89 -15 -165 -15 -167 0 -3 18 -5 40 -5 22 0
40 -3 40 -7 0 -5 -7 -59 -17 -122 -16 -110 -16 -114 2 -127 14 -11 65 -14 216
-14 246 0 259 2 259 44 0 25 -31 96 -43 96 -30 0 -179 23 -199 31 -16 7 -31
23 -37 41 -19 53 -16 57 47 60 l57 3 12 70 c83 496 156 1146 199 1788 l6 97
774 0 774 0 9 -22 c4 -13 11 -35 15 -50 6 -26 5 -27 -51 -33 -219 -24 -323
-84 -336 -195 -3 -25 -9 -68 -12 -96 -8 -53 -9 -50 91 -322 l37 -103 -35 -127
c-33 -115 -161 -562 -236 -817 -26 -91 -55 -162 -71 -175 -35 -29 -221 -241
-221 -252 0 -32 133 -38 198 -8 43 20 144 87 220 147 49 40 53 63 21 125 -14
28 -19 51 -15 71 8 41 85 201 144 300 27 45 75 127 107 181 40 69 60 95 65 85
4 -8 38 -95 74 -194 37 -99 73 -193 81 -210 7 -16 27 -70 45 -120 46 -131 35
-199 -54 -323 -30 -43 -30 -44 -11 -58 11 -9 43 -14 82 -14 62 0 65 1 112 45
62 58 111 149 118 221 l6 55 -52 49 c-45 42 -55 58 -66 107 -19 85 -40 241
-76 571 -31 286 -31 295 -14 333 10 21 21 39 25 39 3 0 35 -111 69 -247 35
-137 103 -405 152 -598 49 -192 103 -407 121 -477 l32 -128 58 0 c49 0 58 3
58 18 0 9 -36 161 -81 337 -227 900 -288 1149 -284 1153 2 3 55 4 117 3 106
-2 115 -4 139 -27 45 -43 105 -54 301 -54 l178 0 0 -245 0 -245 25 0 25 0 0
-369 0 -368 -72 -33 c-161 -71 -328 -154 -328 -162 0 -4 207 -8 460 -8 253 0
460 4 460 8 0 4 -90 50 -200 101 l-200 94 0 368 0 369 25 0 25 0 0 248 0 249
215 6 c125 4 233 12 258 19 69 21 129 89 160 184 45 135 77 356 77 533 l0 74
-57 -7 c-32 -3 -123 -9 -202 -12 l-144 -7 6 110 c4 60 16 143 27 184 35 128
69 281 82 365 10 72 10 87 -6 127 -35 92 -162 176 -329 218 -85 22 -86 23 -79
48 4 14 7 46 7 70 -1 37 -5 47 -35 72 -86 69 -90 75 -90 124 0 104 -48 148
-184 170 -94 15 -128 30 -168 72 -28 29 -58 91 -58 118 0 9 10 29 21 45 19 25
20 33 10 58 -9 20 -9 36 -1 56 27 73 -2 182 -69 258 l-31 35 21 19 c59 53 77
160 38 224 -56 91 -145 122 -234 81 -79 -36 -112 -100 -103 -201 l5 -48 -45
-12 c-123 -31 -219 -110 -247 -204 -20 -68 -19 -73 15 -81 40 -9 50 -45 21
-81 -25 -31 -29 -108 -7 -139 7 -11 17 -40 21 -65 4 -25 12 -53 17 -64 8 -14
2 -35 -23 -90 -28 -60 -34 -85 -37 -158 -2 -47 1 -108 6 -135 9 -39 8 -52 -5
-72 -9 -14 -45 -108 -80 -210 -59 -175 -118 -311 -133 -311 -3 0 -23 38 -45
85 l-38 85 -341 2 c-188 1 -386 2 -441 3 -55 1 -103 1 -107 -1 -3 -2 12 -41
33 -87 139 -290 245 -523 242 -529 -2 -5 -175 -8 -384 -8 l-379 0 7 338 c4
252 10 347 20 377 21 59 27 239 14 415 -6 85 -14 197 -18 248 l-6 93 80 -53
c230 -154 436 -215 548 -163 128 62 276 320 441 773 39 107 40 112 17 112 -33
0 2 18 84 45 128 41 242 128 292 222 11 21 5 102 -8 113 -3 3 -11 14 -18 25
-12 21 -14 21 -50 10 -17 -5 -23 -2 -23 9 0 32 -33 14 -109 -58 -75 -72 -137
-114 -149 -101 -3 3 6 30 21 61 28 57 34 89 17 99 -5 3 -16 2 -24 -2 -24 -13
-160 -196 -192 -257 -28 -54 -46 -68 -59 -46 -3 6 -12 10 -19 10 -14 0 -90
-154 -161 -330 -83 -205 -144 -302 -200 -316 -32 -8 -71 13 -195 102 -299 216
-384 261 -506 270 -72 6 -83 10 -119 41 -36 31 -39 38 -43 96 -4 62 -4 63 31
90 20 15 48 52 63 83 34 70 36 151 5 277 -27 112 -27 127 0 127 11 0 34 13 50
29 36 36 40 95 9 134 -19 24 -19 27 -3 55 15 25 15 33 3 62 -14 33 -73 69
-115 70 -15 0 -25 11 -34 35 -22 62 -112 85 -178 46z m142 -26 c14 -13 25 -35
25 -48 0 -21 5 -25 45 -29 89 -11 133 -70 82 -114 l-27 -23 30 -30 c38 -38 40
-82 5 -116 -31 -32 -69 -32 -111 0 -40 30 -50 31 -64 5 -16 -30 -55 -25 -99
15 l-38 35 -19 -21 c-26 -29 -90 -21 -121 15 -12 14 -24 26 -27 26 -3 0 -12
-15 -20 -34 -20 -48 -64 -84 -111 -91 -53 -8 -91 7 -115 47 -41 67 -14 138 51
138 26 0 30 3 24 18 -36 92 11 141 90 92 l33 -20 7 27 c3 15 15 39 26 55 25
35 83 39 122 8 33 -26 34 -26 42 10 13 60 123 83 170 35z m-283 -345 c39 -23
86 -26 113 -6 18 13 23 11 53 -15 38 -34 84 -38 108 -10 16 18 17 18 52 -6 20
-13 37 -25 39 -26 7 -8 53 -245 53 -276 0 -105 -61 -195 -157 -231 -124 -46
-253 -8 -303 90 -11 21 -28 69 -38 107 l-19 68 -39 3 c-60 5 -86 38 -68 86 10
27 62 20 76 -9 16 -36 28 -31 17 7 -5 18 -9 57 -9 86 0 48 3 56 35 83 19 17
37 39 40 50 8 23 7 23 47 -1z m2038 -227 c0 -10 -28 -43 -62 -75 -35 -32 -57
-58 -49 -58 7 0 46 32 85 70 67 64 96 83 96 61 0 -19 -49 -78 -97 -115 -28
-23 -52 -44 -52 -48 -2 -20 24 -3 88 57 37 36 71 65 75 65 3 0 6 -9 6 -19 0
-12 -28 -43 -69 -78 -65 -54 -81 -73 -63 -73 4 0 35 25 70 56 35 31 65 54 69
51 10 -10 -35 -72 -90 -124 -61 -58 -102 -80 -202 -113 -38 -12 -74 -26 -79
-31 -6 -5 -19 -9 -29 -9 -24 0 -137 59 -137 72 0 23 66 132 132 217 81 105
110 127 82 65 -44 -103 -47 -115 -36 -126 19 -19 80 16 167 97 44 41 83 74 88
75 4 0 7 -8 7 -17z m811 -234 c69 -23 109 -80 109 -154 0 -52 -16 -89 -53
-124 l-26 -23 -28 19 c-42 29 -81 42 -148 51 -56 7 -60 9 -68 39 -14 46 0 99
36 140 51 58 108 75 178 52z m-1273 -89 c20 -16 72 -45 115 -65 70 -32 77 -38
71 -58 -4 -12 -40 -107 -81 -212 -128 -328 -248 -532 -355 -603 -100 -66 -300
-15 -523 134 -44 29 -93 63 -109 75 l-28 22 7 -99 c3 -54 11 -146 16 -204 15
-168 12 -418 -6 -477 -15 -50 -16 -51 -86 -77 -146 -54 -380 -71 -567 -41
-156 25 -202 54 -227 140 -9 28 -22 143 -30 255 -18 258 -34 423 -41 430 -12
11 -364 -372 -364 -397 0 -8 56 -83 123 -166 68 -84 151 -189 185 -235 l62
-84 -33 -31 c-18 -18 -48 -53 -67 -79 -18 -27 -36 -48 -39 -48 -14 0 -343 314
-409 390 -74 86 -136 193 -148 255 -14 74 66 224 223 419 167 206 387 413 499
470 18 8 57 19 88 24 l57 9 21 -41 c53 -106 113 -206 124 -206 7 0 22 14 34
31 l22 30 21 -22 21 -23 -18 -165 c-43 -401 -43 -380 -13 -462 43 -123 76
-191 88 -183 16 10 95 181 103 224 4 22 -3 79 -20 160 -14 69 -39 190 -56 270
-32 152 -31 156 8 219 2 1 18 -9 37 -23 58 -45 59 -44 78 103 9 72 18 105 28
109 8 3 50 0 92 -6 118 -17 236 -82 489 -271 164 -123 209 -134 269 -66 46 52
73 105 154 295 95 222 136 310 143 310 3 0 22 -13 42 -30z m-1419 -60 c25 0
63 5 83 10 21 6 41 11 45 11 4 -1 8 -27 10 -58 3 -41 -3 -74 -18 -115 -22 -58
-90 -148 -113 -148 -10 0 -58 40 -169 139 -4 4 0 41 8 82 24 117 20 110 67 93
22 -8 61 -14 87 -14z m2646 -134 c65 -29 119 -77 153 -135 22 -38 27 -58 27
-113 0 -37 -4 -71 -10 -76 -5 -5 -27 -13 -48 -16 l-37 -7 -30 63 c-17 35 -30
69 -30 76 0 7 -5 22 -10 32 -10 18 -12 18 -64 -6 -83 -38 -183 -55 -304 -52
l-107 3 1 33 c2 43 56 124 102 154 75 50 191 80 267 71 22 -3 63 -15 90 -27z
m-2462 0 c9 -7 17 -22 17 -32 1 -42 -34 -214 -43 -214 -10 0 -107 69 -107 76
0 2 12 21 28 42 15 21 38 62 51 90 27 57 28 58 54 38z m-367 -11 c-3 -9 22
-39 74 -87 44 -39 80 -77 80 -82 0 -6 -17 -33 -36 -60 l-36 -48 -24 36 c-34
49 -104 192 -104 210 0 8 10 22 22 30 28 20 32 20 24 1z m2834 -192 c0 -10 14
-47 30 -81 17 -35 30 -66 30 -68 0 -2 -9 -4 -21 -4 -11 0 -35 16 -53 35 -25
26 -42 35 -65 35 -40 0 -88 -24 -95 -47 -9 -27 -89 -23 -120 6 -12 12 -43 25
-67 29 -30 5 -45 13 -47 25 -3 15 6 17 80 17 94 0 196 19 260 49 54 25 68 25
68 4z m-2598 -200 c45 -182 90 -436 84 -472 -6 -37 -75 -191 -86 -191 -4 0
-24 37 -45 83 -30 64 -39 98 -42 157 -5 77 11 273 24 294 4 6 6 21 4 33 -1 13
1 28 5 35 4 6 8 41 10 77 3 91 3 91 12 91 5 0 20 -48 34 -107z m2567 75 c81
-86 -26 -213 -111 -131 -35 33 -38 88 -7 127 27 34 88 37 118 4z m-294 6 c8
-4 22 -19 30 -35 36 -68 2 -139 -65 -139 -21 0 -41 3 -43 8 -3 4 -2 44 1 90 5
82 5 82 32 82 16 0 36 -3 45 -6z m122 -46 c5 -7 15 -31 21 -54 15 -51 40 -74
89 -81 50 -7 88 23 105 82 7 23 16 43 21 44 34 5 47 -1 54 -26 l7 -28 6 35 c4
26 10 36 26 38 24 3 54 -21 54 -44 0 -22 -38 -54 -65 -54 -22 0 -25 -4 -25
-33 0 -79 -64 -188 -131 -222 -86 -45 -203 -39 -277 14 -39 29 -73 88 -87 149
l-7 32 47 0 c37 0 51 5 70 26 l24 26 -2 -28 c-1 -21 3 -29 18 -32 16 -4 17 -2
7 10 -9 12 -9 23 -1 47 9 24 9 35 0 44 -15 15 -14 54 2 60 21 9 34 7 44 -5z
m352 -152 c16 -54 68 -118 116 -140 19 -9 73 -23 119 -31 95 -15 116 -24 145
-61 15 -19 21 -41 21 -78 0 -62 23 -104 73 -131 44 -23 62 -61 52 -112 -7 -41
-41 -103 -56 -103 -4 0 -16 15 -25 33 -52 102 -180 221 -252 232 -20 4 -75 15
-122 25 -47 10 -108 21 -136 25 -50 6 -51 7 -80 67 l-30 61 46 46 c47 47 73
101 85 174 8 50 28 47 44 -7z m-3225 -178 c3 -40 13 -171 21 -292 15 -217 34
-324 61 -347 20 -16 18 -37 -10 -104 -24 -60 -46 -82 -46 -47 0 26 -70 124
-234 326 -75 93 -136 175 -136 182 0 7 64 81 143 164 78 84 150 163 160 176
10 13 22 22 26 19 5 -2 11 -37 15 -77z m2818 -48 l53 -17 3 -59 3 -60 -82 -39
c-46 -22 -98 -50 -117 -63 -43 -29 -47 -23 -56 67 -8 82 5 152 40 214 l27 49
37 -37 c23 -22 60 -44 92 -55z m247 -56 c37 -78 37 -87 10 -159 -24 -63 -53
-88 -100 -83 -58 6 -73 41 -77 174 l-4 114 39 1 c21 0 47 4 58 9 36 16 43 11
74 -56z m205 -95 l93 -22 0 -86 c0 -92 4 -108 82 -291 57 -136 92 -263 94
-345 l2 -70 -100 -6 c-55 -4 -188 -10 -295 -14 -228 -8 -246 -4 -308 68 -23
26 -62 66 -88 88 l-47 41 -2 272 -2 273 84 42 c46 23 87 39 92 37 4 -3 8 -21
9 -42 9 -135 139 -157 202 -33 11 21 20 47 20 58 0 58 22 62 164 30z m188 -50
c161 -82 272 -307 323 -654 27 -185 18 -260 -41 -325 -65 -72 -122 -71 -504
11 -80 17 -190 35 -245 39 -55 5 -109 11 -121 15 -14 4 -36 -4 -73 -29 -29
-20 -55 -36 -57 -36 -13 0 15 35 49 60 33 24 37 31 23 36 -22 8 -56 -7 -107
-48 -21 -17 -42 -28 -45 -25 -14 13 28 58 77 83 53 26 59 41 14 30 -15 -4 -49
-27 -76 -53 -62 -58 -64 -38 -2 28 25 27 44 52 41 55 -10 10 -79 -58 -99 -99
-11 -21 -23 -36 -26 -33 -14 14 54 122 97 154 42 32 48 34 100 29 30 -4 75
-14 100 -23 39 -14 79 -15 300 -10 140 3 284 9 319 12 l63 7 -7 80 c-9 104
-43 219 -111 380 -70 164 -88 250 -64 311 12 31 19 32 72 5z m-777 -196 c4
-71 5 -188 1 -261 l-7 -134 -41 -61 c-58 -87 -128 -177 -136 -177 -4 0 -27 38
-50 85 l-42 85 34 68 c39 78 93 221 132 345 27 86 74 177 93 177 5 0 12 -57
16 -127z m1241 -54 c167 -70 244 -146 244 -242 0 -64 -35 -244 -70 -358 -30
-97 -56 -276 -48 -329 3 -18 -1 -31 -8 -34 -10 -4 -254 -9 -310 -6 -12 0 -74
130 -74 155 0 8 20 23 44 33 88 40 124 129 112 281 -9 114 -38 252 -80 384
l-34 107 21 26 c19 24 24 26 75 20 30 -4 88 -20 128 -37z m-2990 -396 c-3
-117 -9 -260 -13 -318 l-6 -105 -207 0 -207 0 -7 38 c-3 20 -6 52 -6 70 0 53
-22 34 -49 -41 l-23 -67 -260 0 c-204 0 -259 3 -255 13 2 6 21 64 40 127 48
151 163 470 174 481 4 4 39 -1 78 -12 38 -10 129 -24 201 -31 112 -10 152 -9
260 4 71 9 161 27 199 40 39 13 74 22 79 19 5 -2 6 -93 2 -218z m1360 169 c16
-11 295 -583 289 -592 -3 -5 -195 -8 -428 -7 l-422 2 -43 85 c-46 92 -242 510
-242 516 0 7 835 4 846 -4z m-2260 -126 c-2 -6 -27 -78 -55 -161 -38 -111 -59
-159 -82 -183 -47 -50 -47 -30 -1 40 23 34 39 65 36 67 -3 3 -26 -17 -50 -44
-36 -40 -44 -45 -38 -25 3 14 21 45 39 70 43 60 59 109 45 144 -15 41 -13 47
32 100 l42 49 18 -23 c10 -13 17 -28 14 -34z m2736 -63 c33 -32 64 -65 69 -74
7 -15 3 -15 -37 -7 -60 13 -82 6 -138 -43 -51 -45 -86 -103 -86 -143 0 -33 12
-39 76 -40 38 0 54 -4 54 -14 0 -10 -16 -12 -67 -10 l-67 3 -33 68 -34 68 69
92 c38 51 78 107 91 125 12 17 27 32 32 32 6 0 38 -26 71 -57z m678 -363 c63
-11 129 -20 146 -20 30 0 34 -4 59 -67 15 -38 32 -74 37 -81 6 -7 8 -16 4 -20
-4 -3 -78 -7 -164 -7 l-157 -1 -3 -36 c-3 -30 3 -42 31 -70 62 -62 96 -72 252
-75 77 -1 143 -3 146 -3 4 0 17 -27 29 -60 44 -119 10 -259 -80 -328 l-43 -33
-349 3 -350 3 4 -42 3 -43 -106 0 -106 0 -5 63 c-4 41 -15 82 -35 122 -26 53
-121 402 -112 409 12 8 381 36 472 36 59 0 107 4 107 9 0 14 -126 22 -222 13
-94 -8 -101 -4 -78 39 10 18 23 19 166 19 l155 0 -3 63 -3 62 -152 3 c-151 2
-153 3 -153 25 0 22 2 22 117 19 92 -2 278 9 278 17 0 0 52 -8 115 -19z m-572
-17 l-3 -28 -122 -3 c-112 -2 -124 -1 -143 18 -11 11 -20 25 -20 30 0 6 55 10
146 10 l145 0 -3 -27z m-2518 -163 c0 -11 -111 -286 -213 -530 -90 -215 -291
-674 -359 -820 -17 -36 -46 -101 -65 -145 -20 -44 -57 -125 -83 -180 -26 -55
-60 -129 -75 -165 -16 -36 -33 -71 -38 -77 -14 -19 -317 -18 -317 0 0 7 25 82
55 167 29 85 174 516 321 958 l267 802 253 0 c164 0 254 -4 254 -10z m550 -37
c0 -26 -4 -97 -10 -157 -5 -61 -17 -199 -25 -306 -28 -341 -80 -820 -105 -970
-12 -69 -70 -446 -70 -454 0 -3 -75 -6 -166 -6 l-165 0 6 68 c3 37 17 193 31
347 14 154 32 354 40 445 8 91 18 289 24 440 18 536 22 615 26 628 2 9 53 12
209 12 l205 0 0 -47z m1690 43 c0 -2 57 -228 126 -502 69 -275 150 -596 179
-714 30 -118 98 -392 152 -607 105 -419 104 -405 45 -399 -12 1 -26 7 -31 12
-5 5 -28 81 -50 169 -22 88 -74 293 -115 455 -41 162 -107 421 -146 575 -199
779 -250 984 -250 999 0 12 10 16 45 16 25 0 45 -2 45 -4z m305 -6 c11 -18 -7
-58 -28 -64 -39 -11 -234 -19 -240 -10 -3 5 -8 26 -12 47 l-7 37 140 0 c79 0
143 -4 147 -10z m1545 -103 c0 -252 -62 -516 -138 -592 -68 -68 -103 -73 -658
-81 l-481 -7 -55 26 c-57 25 -85 55 -90 94 l-3 21 480 6 c264 3 520 10 570 15
81 9 92 13 113 38 46 57 83 193 98 357 l7 79 -109 -7 c-499 -31 -647 -30 -715
5 -44 22 -79 63 -79 94 l0 22 383 8 c210 4 423 11 472 15 50 3 116 7 148 8
l57 2 0 -103z m-1914 -99 c12 -49 21 -88 19 -88 -1 0 -28 12 -60 26 -109 50
-235 69 -299 44 -36 -13 -33 4 7 33 60 45 175 77 266 74 l45 -2 22 -87z m1736
-8 c-5 -87 -32 -220 -58 -284 -36 -91 -52 -102 -151 -109 -46 -3 -83 -3 -83
-1 0 3 9 30 19 62 21 61 51 247 51 312 0 21 5 42 10 45 11 7 173 24 200 21 11
-1 14 -13 12 -46z m-240 -30 c-8 -141 -39 -304 -67 -346 -11 -18 -27 -22 -106
-27 -51 -4 -95 -5 -97 -2 -3 3 7 14 21 25 37 30 76 116 83 186 5 48 2 77 -15
132 -11 39 -21 73 -21 76 0 5 117 13 175 12 30 -1 30 -1 27 -56z m-1637 -6
c36 -9 65 -20 65 -25 0 -5 -4 -9 -10 -9 -14 0 -59 -51 -79 -90 -10 -19 -42
-117 -72 -217 -29 -101 -57 -179 -61 -175 -16 16 -109 288 -115 333 -7 62 10
109 58 158 36 38 43 41 94 41 31 0 85 -7 120 -16z m136 -56 c21 -12 41 -29 43
-37 3 -9 26 -103 52 -209 l46 -193 -44 -92 c-46 -95 -101 -191 -303 -532 -141
-238 -240 -430 -250 -482 -14 -81 -90 -148 -141 -124 -29 13 -30 21 -4 71 11
22 47 135 81 252 33 117 71 249 84 293 13 44 76 262 140 485 125 440 138 481
168 523 16 24 72 67 86 67 2 0 21 -10 42 -22z m1209 -728 l0 -240 -90 0 -90 0
0 234 0 235 23 4 c12 2 52 5 90 6 l67 1 0 -240z m-1110 113 c0 -10 13 -148 30
-307 28 -273 60 -488 81 -543 26 -68 -2 -177 -44 -171 -17 2 -29 25 -64 118
-24 63 -77 203 -117 310 -111 294 -106 251 -38 366 32 55 76 132 97 172 39 72
55 88 55 55z m1060 -728 c0 -195 0 -358 0 -362 0 -5 -18 -9 -40 -11 l-40 -3 0
365 0 366 40 0 40 0 0 -355z m-861 -226 c22 -36 15 -93 -20 -161 -65 -129
-147 -181 -233 -148 l-26 9 40 63 c23 34 48 86 56 116 13 43 18 51 30 41 20
-17 59 -3 72 26 7 14 15 43 18 65 6 35 9 38 26 29 10 -6 27 -24 37 -40z m-731
-64 c22 -48 15 -69 -35 -107 -87 -65 -204 -137 -240 -147 -39 -11 -133 -3
-133 11 0 5 43 56 96 113 92 98 98 103 118 90 11 -8 37 -15 58 -15 31 0 45 7
76 39 20 22 40 40 43 40 3 1 11 -10 17 -24z m-1510 -60 c15 -58 38 -72 144
-85 48 -6 94 -13 102 -16 17 -6 36 -48 36 -78 0 -22 -4 -23 -105 -29 -58 -4
-159 -4 -225 0 l-120 6 0 38 c0 34 23 164 35 197 3 8 25 12 63 12 l58 0 12
-45z m3285 -127 c97 -45 174 -84 172 -86 -7 -7 -795 -9 -795 -2 0 3 78 43 173
88 228 108 218 108 450 0z"/>
<path d="M3436 4969 c-30 -24 -33 -45 -10 -77 49 -71 154 -32 129 47 -6 21
-52 51 -78 51 -8 0 -26 -9 -41 -21z"/>
<path d="M495 6810 c-2 -4 7 -12 20 -18 36 -17 31 -50 -10 -66 -13 -6 -16 -10
-7 -13 7 -3 24 3 38 12 19 12 25 23 21 41 -4 23 -2 24 59 24 34 0 74 -4 87 -9
22 -9 23 -12 17 -63 -4 -29 -11 -97 -15 -151 l-7 -98 -99 2 c-55 1 -102 -1
-105 -3 -4 -5 134 -18 191 -18 l31 0 12 158 c7 86 12 165 12 174 0 13 -13 18
-62 22 -124 11 -179 13 -183 6z"/>
<path d="M793 4441 c-73 -45 -304 -410 -303 -480 0 -9 27 35 60 97 116 222
238 382 293 382 29 0 47 -18 47 -44 0 -25 -89 -173 -183 -305 -37 -51 -81
-122 -98 -157 -31 -63 -42 -74 -54 -54 -9 15 -65 42 -65 31 0 -4 25 -28 56
-51 69 -54 108 -117 99 -161 -9 -38 -56 -69 -107 -69 -20 0 -40 -4 -43 -10 -9
-15 60 -12 99 4 72 30 87 104 36 174 -16 23 -30 48 -30 56 0 33 46 116 136
248 175 254 199 309 152 342 -30 21 -56 20 -95 -3z"/>
</g>
</svg>
